<?xml version="1.0" standalone="no"?>
<!DOCTYPE svg PUBLIC "-//W3C//DTD SVG 20010904//EN"
 "http://www.w3.org/TR/2001/REC-SVG-20010904/DTD/svg10.dtd">
<svg version="1.0" xmlns="http://www.w3.org/2000/svg"
 width="1500.000000pt" height="875.000000pt" viewBox="0 0 1500.000000 875.000000"
 preserveAspectRatio="xMidYMid meet">
<metadata>
Created by potrace 1.16, written by Peter Selinger 2001-2019
</metadata>
<g transform="translate(0.000000,875.000000) scale(0.100000,-0.100000)"
fill="#000000" stroke="none">
<path d="M7265 8744 c-79 -6 -223 -24 -310 -40 -81 -14 -105 -19 -230 -48
-195 -44 -509 -169 -705 -281 -36 -21 -81 -46 -100 -57 -40 -23 -205 -136
-265 -182 -165 -127 -369 -326 -501 -491 -154 -193 -176 -233 -136 -254 22
-12 37 0 81 64 112 162 362 434 496 540 27 22 55 45 61 50 6 6 48 37 93 70
341 250 733 423 1151 509 146 30 414 56 570 56 151 -1 471 -33 588 -60 157
-37 154 -36 302 -84 254 -83 501 -201 702 -337 67 -45 206 -147 224 -164 6 -6
39 -33 73 -60 33 -28 110 -99 169 -160 449 -459 726 -1019 811 -1640 34 -245
38 -426 16 -650 -39 -402 -133 -733 -301 -1062 -68 -131 -146 -258 -278 -448
-12 -16 9 -45 33 -45 38 0 228 291 332 509 96 200 157 367 203 556 45 183 45
182 78 405 7 50 12 187 12 335 0 307 -15 434 -90 740 -71 296 -225 645 -396
899 -40 59 -147 206 -158 216 -3 3 -27 32 -55 65 -82 100 -224 242 -335 337
-136 116 -121 104 -249 192 -356 247 -777 417 -1196 484 -38 7 -99 16 -135 22
-67 11 -466 21 -555 14z"/>
<path d="M6013 7448 c-12 -6 -26 -22 -32 -37 -14 -34 -41 -204 -41 -258 0 -61
-14 -88 -62 -120 -61 -42 -124 -57 -211 -50 -113 8 -206 43 -385 144 -335 189
-382 207 -547 207 -109 1 -125 -2 -178 -26 -167 -78 -270 -270 -238 -445 16
-90 55 -192 86 -226 52 -55 58 -37 38 109 -19 138 -10 221 31 303 53 103 128
144 266 144 130 1 199 -22 455 -149 265 -130 318 -148 450 -147 108 0 159 13
228 59 22 14 41 24 43 21 2 -2 0 -66 -6 -143 -6 -76 -17 -236 -25 -354 -26
-390 -34 -482 -45 -495 -6 -7 -30 -18 -55 -25 -78 -22 -95 -64 -38 -97 16 -8
44 -36 63 -61 35 -46 35 -46 34 -146 -1 -56 -7 -184 -14 -286 -7 -102 -10
-297 -8 -435 3 -230 5 -253 24 -290 11 -22 36 -51 55 -63 29 -20 43 -23 93
-20 51 4 63 9 87 36 39 43 49 89 49 222 0 207 -42 445 -133 756 -18 62 -23
101 -22 170 1 49 3 92 4 97 5 28 127 -29 192 -90 78 -72 171 -221 308 -493
159 -315 259 -508 283 -542 10 -14 18 -28 18 -31 0 -3 34 -66 76 -139 42 -73
82 -142 88 -153 45 -79 157 -253 204 -316 31 -42 91 -123 131 -180 41 -57 92
-125 113 -150 21 -26 38 -50 38 -53 0 -8 -327 -224 -495 -327 -486 -297 -927
-504 -1355 -637 -97 -30 -370 -96 -470 -113 -410 -72 -820 -79 -1105 -19 -27
5 -63 13 -80 16 -223 45 -344 103 -467 223 -98 95 -136 157 -167 271 -61 219
8 429 211 644 40 43 75 83 76 88 2 5 -3 20 -12 34 l-17 25 -47 -38 c-201 -161
-315 -316 -362 -495 -68 -260 42 -534 290 -720 120 -90 325 -168 565 -216 106
-21 595 -24 735 -3 177 25 456 84 625 131 148 41 502 167 622 221 24 10 62 27
86 38 23 10 65 29 92 41 60 27 385 189 435 217 19 11 78 45 130 75 52 30 130
73 172 96 105 58 249 148 420 264 79 53 150 99 159 103 10 4 23 -6 40 -29 105
-147 407 -396 597 -491 254 -127 614 -168 877 -100 255 66 485 216 604 395 77
115 96 180 95 325 0 101 -3 127 -21 165 -67 144 -209 258 -403 323 -116 39
-288 54 -453 39 -143 -12 -153 -14 -273 -42 -112 -27 -273 -81 -360 -120 -22
-11 -64 -28 -92 -39 -66 -26 -216 -102 -367 -185 l-119 -67 -18 23 c-10 13
-44 57 -75 98 -31 41 -68 91 -83 110 -97 128 -470 690 -470 709 0 5 15 14 33
22 54 22 139 84 197 144 64 66 61 62 125 140 28 33 52 62 55 65 3 3 17 21 30
40 13 19 27 37 30 40 3 3 17 21 30 40 13 19 28 38 33 41 5 4 46 -2 90 -12 220
-50 386 -69 592 -69 153 0 213 4 367 25 36 5 37 4 65 -53 68 -134 176 -294
239 -354 52 -48 105 -56 147 -20 25 22 23 100 -5 149 -20 33 -132 189 -148
203 -3 3 -18 23 -35 45 -16 22 -35 46 -42 53 -21 21 -16 27 40 52 87 39 136
77 130 100 -7 26 -15 25 -61 -3 -43 -26 -85 -46 -125 -58 -28 -8 -29 -6 -66
74 -21 45 -51 114 -66 152 -16 39 -32 75 -36 80 -9 13 -87 213 -140 360 -34
95 -80 239 -103 325 -35 128 -57 221 -75 306 l-21 101 20 48 c27 63 67 184 81
243 6 26 13 56 16 67 3 11 7 70 10 131 4 89 2 122 -12 163 -29 88 -88 114
-152 65 -42 -32 -65 -77 -93 -184 -33 -127 -37 -265 -11 -439 12 -79 24 -147
26 -151 10 -16 -126 -316 -229 -505 -130 -238 -161 -293 -177 -316 l-18 -26
-88 18 c-111 23 -218 24 -319 3 -100 -21 -162 -52 -207 -104 -73 -86 -56 -183
52 -282 55 -51 191 -128 226 -128 8 0 15 -5 15 -11 0 -25 -148 -211 -258 -322
-79 -81 -139 -119 -204 -131 l-37 -7 -37 68 c-21 37 -45 79 -55 93 -23 35
-196 347 -250 450 -144 282 -278 423 -455 479 l-57 18 64 38 c123 74 321 215
409 290 20 16 58 48 84 70 157 127 413 386 576 581 153 182 204 250 236 314
24 48 25 52 9 76 -18 28 -53 44 -95 44 -37 0 -71 -40 -121 -145 -39 -82 -175
-271 -296 -412 -10 -11 -38 -46 -63 -76 -71 -87 -365 -374 -470 -458 -52 -42
-153 -116 -225 -163 l-130 -87 -4 38 c-3 36 7 195 29 448 5 61 14 169 20 240
20 238 32 330 50 365 55 108 79 279 46 323 -15 19 -86 23 -123 5z m2271 -104
c3 -9 6 -55 6 -102 0 -87 -11 -162 -46 -301 -17 -72 -18 -73 -27 -42 -12 49
-4 400 10 434 14 30 47 37 57 11z m-134 -875 c0 -22 48 -236 71 -314 66 -228
128 -418 169 -520 4 -11 18 -47 31 -80 13 -33 31 -76 40 -95 10 -19 16 -37 14
-39 -2 -2 -31 18 -65 43 -82 62 -215 148 -303 194 -77 41 -278 122 -302 122
-8 0 -15 2 -15 4 0 3 60 128 133 278 73 150 151 310 172 355 37 78 55 95 55
52z m-527 -700 c20 -5 37 -12 37 -14 0 -2 -39 -66 -86 -142 -48 -76 -100 -159
-116 -185 -17 -27 -32 -48 -35 -48 -18 0 -151 79 -188 112 -123 108 -97 205
71 261 64 21 98 26 179 27 55 0 117 -5 138 -11z m260 -76 c84 -34 229 -107
294 -149 29 -19 56 -34 59 -34 20 0 284 -223 284 -239 0 -10 -224 -31 -331
-31 -91 0 -156 6 -349 31 -93 13 -269 52 -293 65 -13 8 -4 27 52 119 37 61 84
142 105 180 21 39 43 76 49 83 12 16 45 9 130 -25z m-1893 -325 c31 -140 60
-374 60 -483 0 -118 -30 -181 -60 -125 -11 20 -28 660 -17 660 3 0 11 -24 17
-52z m3085 -1250 c205 -36 373 -144 440 -282 34 -71 46 -196 25 -274 -59 -216
-228 -347 -525 -408 -112 -23 -335 -23 -440 0 -231 50 -479 170 -673 328 -107
87 -244 227 -240 246 2 10 74 52 173 103 481 244 917 345 1240 287z"/>
<path d="M4756 6928 c-42 -65 -166 -353 -194 -453 -32 -112 -50 -192 -63 -280
-57 -370 -51 -753 17 -1090 44 -217 57 -266 116 -434 173 -493 485 -937 874
-1246 189 -150 277 -208 468 -310 115 -61 151 -67 151 -25 0 21 -11 31 -65 59
-356 185 -632 404 -879 695 -66 79 -215 290 -261 371 -70 123 -115 215 -180
370 -26 62 -77 210 -85 245 -2 8 -17 67 -33 130 -29 110 -46 201 -73 395 -17
119 -18 571 -1 685 39 262 51 314 99 465 26 80 46 127 131 308 35 77 43 102
35 115 -16 26 -40 26 -57 0z"/>
<path d="M6513 2904 c-11 -28 11 -47 78 -66 269 -78 657 -119 935 -99 229 17
355 36 564 88 114 28 130 36 130 65 0 31 -28 32 -139 5 -479 -118 -999 -117
-1441 2 -92 25 -119 26 -127 5z"/>
<path d="M12315 1766 c-160 -40 -244 -129 -245 -259 0 -157 81 -213 405 -277
227 -45 305 -100 305 -215 0 -109 -88 -183 -246 -206 -156 -24 -341 44 -405
147 l-20 34 -32 -16 c-18 -9 -34 -18 -36 -20 -10 -9 53 -87 99 -123 91 -72
220 -107 360 -98 166 11 285 70 331 164 36 71 34 181 -3 244 -51 86 -121 119
-368 169 -172 35 -235 58 -274 99 -47 50 -47 144 1 201 110 131 444 128 549
-4 27 -34 28 -34 58 -19 17 9 33 17 34 19 2 1 -9 19 -25 39 -41 52 -119 102
-188 120 -71 18 -229 19 -300 1z"/>
<path d="M13341 1764 c-178 -48 -305 -187 -346 -380 -51 -240 52 -490 244
-593 162 -86 393 -79 546 17 137 86 225 262 225 452 0 247 -137 439 -359 504
-69 20 -236 20 -310 0z m272 -69 c202 -52 317 -211 317 -435 0 -146 -61 -289
-155 -363 -129 -102 -328 -121 -481 -47 -250 122 -314 511 -120 727 100 112
280 160 439 118z"/>
<path d="M0 1260 l0 -510 40 0 40 0 0 245 c0 135 2 245 5 245 3 0 124 -110
268 -245 l262 -245 55 0 c53 0 54 0 35 18 -11 11 -138 130 -282 265 l-261 246
251 237 c139 129 253 240 255 245 2 5 -18 9 -45 8 l-48 0 -245 -231 -245 -231
-3 231 -2 232 -40 0 -40 0 0 -510z"/>
<path d="M820 1260 l0 -510 40 0 40 0 0 510 0 510 -40 0 -40 0 0 -510z"/>
<path d="M1126 1755 c-3 -9 -5 -238 -5 -510 l0 -495 40 0 39 0 1 363 c1 522 1
527 8 527 3 0 91 -131 195 -290 128 -197 195 -290 207 -290 11 0 78 93 206
288 l188 289 3 -444 2 -443 40 0 40 0 0 510 0 510 -47 0 -48 0 -190 -295
c-104 -162 -192 -295 -195 -295 -3 0 -91 132 -196 293 l-191 292 -45 3 c-34 2
-47 -1 -52 -13z"/>
<path d="M2320 1260 l0 -511 283 3 c329 5 347 9 433 92 45 44 54 59 64 111 24
117 -25 230 -126 286 l-56 32 28 15 c87 44 130 124 122 225 -9 112 -66 185
-178 229 -50 20 -77 22 -312 26 l-258 4 0 -512z m516 425 c57 -17 117 -63 141
-108 9 -19 16 -56 16 -88 0 -70 -25 -115 -85 -149 -42 -24 -50 -25 -275 -28
l-233 -3 0 195 0 196 193 0 c141 0 207 -4 243 -15z m25 -471 c95 -28 152 -87
165 -170 13 -89 -32 -159 -125 -196 -50 -19 -81 -22 -278 -26 l-223 -4 0 206
0 206 203 0 c157 0 216 -4 258 -16z"/>
<path d="M3297 1763 c-4 -3 -7 -233 -7 -510 l0 -503 365 0 365 0 0 35 0 35
-322 2 -323 3 -3 198 c-2 154 0 197 10 197 7 1 141 2 298 3 l285 2 3 38 3 37
-300 0 -301 0 0 195 0 195 315 0 315 0 0 40 0 40 -348 0 c-192 0 -352 -3 -355
-7z"/>
<path d="M4190 1261 l0 -511 40 0 40 0 0 190 0 190 139 0 139 0 174 -190 173
-190 53 0 54 0 -154 165 c-84 92 -164 179 -177 195 l-24 30 35 0 c19 0 57 7
85 15 123 37 204 148 204 283 1 106 -22 165 -90 233 -89 88 -107 92 -423 97
l-268 3 0 -510z m567 405 c156 -73 177 -317 34 -413 -55 -37 -96 -43 -313 -43
l-208 0 0 240 0 240 218 0 c208 0 219 -1 269 -24z"/>
<path d="M5130 1260 l0 -510 330 0 330 0 0 35 0 35 -287 2 -288 3 -3 473 -2
472 -40 0 -40 0 0 -510z"/>
<path d="M5937 1763 c-4 -3 -7 -233 -7 -510 l0 -503 365 0 365 0 0 35 0 35
-322 2 -323 3 0 199 0 199 295 1 295 1 3 38 3 37 -300 0 -301 0 0 195 0 195
315 0 315 0 0 40 0 40 -348 0 c-192 0 -352 -3 -355 -7z"/>
<path d="M6827 1683 c31 -49 97 -151 148 -228 50 -77 115 -176 143 -221 l52
-81 0 -201 0 -202 40 0 40 0 0 201 0 202 187 286 c102 157 193 296 201 309 14
22 14 22 -34 22 l-49 -1 -170 -264 c-93 -146 -172 -265 -175 -265 -3 0 -81
119 -175 265 l-170 265 -47 0 -48 0 57 -87z"/>
<path d="M8320 1269 c-124 -276 -226 -505 -228 -510 -2 -5 16 -9 40 -9 l43 0
54 125 55 125 304 -2 304 -3 54 -120 53 -120 45 -3 45 -3 -134 298 c-73 164
-176 393 -228 508 l-94 210 -44 3 -44 3 -225 -502z m408 101 l130 -295 -265
-3 c-146 -1 -268 0 -270 2 -3 2 55 140 128 306 73 165 136 297 140 293 4 -4
66 -141 137 -303z"/>
<path d="M8972 1733 l3 -38 183 -3 182 -2 0 -470 0 -470 40 0 40 0 2 471 3
470 180 2 180 2 3 38 3 37 -411 0 -411 0 3 -37z"/>
<path d="M9940 1260 l0 -510 40 0 40 0 0 246 0 246 33 -27 c17 -15 127 -117
244 -227 269 -253 252 -240 310 -236 l47 3 -274 258 c-151 142 -276 261 -277
265 -1 4 112 113 252 242 139 129 254 238 254 243 1 4 -20 7 -46 7 l-48 0
-245 -229 -245 -230 -3 230 -2 229 -40 0 -40 0 0 -510z"/>
<path d="M10760 1260 l0 -510 40 0 40 0 0 510 0 510 -40 0 -40 0 0 -510z"/>
<path d="M11060 1260 l0 -510 40 0 40 0 2 417 3 416 340 -416 c212 -261 347
-417 358 -417 16 0 17 31 17 510 l0 510 -40 0 -40 0 -2 -417 -3 -418 -265 325
c-145 179 -298 367 -339 418 -44 53 -83 92 -93 92 -17 0 -18 -27 -18 -510z"/>
<path d="M14200 1260 l0 -510 40 0 40 0 2 414 3 414 338 -414 c236 -289 344
-414 357 -414 20 0 20 11 20 510 l0 510 -40 0 -40 0 -2 -421 -3 -421 -270 333
c-386 476 -414 509 -430 509 -13 0 -15 -68 -15 -510z"/>
<path d="M2670 220 c0 -180 2 -210 15 -210 12 0 15 14 15 70 l0 70 53 1 c91 1
144 7 165 18 62 33 87 142 46 199 -36 48 -78 62 -191 62 l-103 0 0 -210z m251
142 c39 -43 40 -98 3 -141 -26 -31 -26 -31 -125 -31 l-99 0 0 106 0 106 96 -4
c94 -3 96 -4 125 -36z"/>
<path d="M3290 220 l0 -210 150 0 c125 0 150 2 150 15 0 12 -24 15 -132 17
l-133 3 0 80 0 80 123 3 c99 2 122 5 122 17 0 12 -22 15 -124 15 l-125 0 2 78
2 77 128 3 c104 2 127 5 127 17 0 13 -24 15 -145 15 l-145 0 0 -210z"/>
<path d="M3900 220 c0 -180 2 -210 15 -210 12 0 15 16 15 80 l0 80 54 0 55 0
72 -80 c40 -44 81 -80 91 -80 10 0 18 3 18 6 0 4 -30 38 -66 77 l-67 70 43 16
c111 41 116 179 9 233 -26 14 -59 18 -136 18 l-103 0 0 -210z m251 142 c37
-41 39 -89 5 -129 -23 -27 -29 -28 -125 -31 l-101 -4 0 102 0 102 96 -4 c94
-3 96 -4 125 -36z"/>
<path d="M4520 220 c0 -179 2 -210 15 -210 12 0 15 29 17 183 l3 182 75 -117
c41 -65 80 -117 85 -117 6 -1 45 52 87 117 l78 117 0 -182 c0 -156 2 -183 15
-183 13 0 15 30 15 210 0 263 -2 265 -115 90 -42 -66 -78 -120 -80 -120 -2 0
-38 54 -80 120 -113 176 -115 174 -115 -90z"/>
<path d="M5295 230 c-49 -111 -91 -206 -93 -211 -2 -5 5 -9 15 -9 12 0 25 17
40 50 l22 50 124 0 124 0 23 -50 c13 -28 29 -50 37 -50 7 0 13 4 13 9 0 5 -40
98 -88 207 -67 151 -93 200 -108 202 -16 2 -34 -31 -109 -198z m164 37 c28
-65 51 -120 51 -122 0 -3 -47 -5 -105 -5 -58 0 -105 4 -105 9 0 5 16 47 36 93
20 45 43 98 51 117 8 18 16 32 17 30 2 -2 27 -57 55 -122z"/>
<path d="M5900 222 c0 -182 2 -212 15 -212 13 0 15 25 15 165 0 91 3 165 8
164 4 0 67 -75 140 -165 74 -91 136 -163 139 -161 3 3 5 44 4 91 0 47 0 140
-1 206 0 99 -3 120 -15 120 -12 0 -15 -28 -17 -169 l-3 -170 -124 155 c-69 85
-133 162 -143 171 -17 15 -18 8 -18 -195z"/>
<path d="M6550 220 l0 -210 150 0 c127 0 150 2 150 15 0 13 -21 15 -128 15
-71 0 -131 2 -133 4 -2 2 -3 41 -1 85 l4 81 119 0 c99 0 119 3 119 15 0 13
-20 15 -120 15 l-120 0 0 80 0 80 125 0 c104 0 125 2 125 15 0 13 -23 15 -145
15 l-145 0 0 -210z"/>
<path d="M7170 220 c0 -179 2 -210 15 -210 12 0 15 28 17 169 l3 170 130 -160
c71 -88 135 -165 142 -171 11 -8 13 30 13 201 0 179 -2 211 -15 211 -12 0 -15
-28 -17 -169 l-3 -168 -135 168 c-74 92 -138 168 -142 168 -5 1 -8 -93 -8
-209z"/>
<path d="M7790 415 c0 -12 15 -15 75 -15 l75 0 0 -195 c0 -165 2 -195 15 -195
12 0 15 31 17 193 l3 192 73 3 c55 2 72 6 72 17 0 13 -27 15 -165 15 -140 0
-165 -2 -165 -15z"/>
<path d="M8820 220 c0 -203 1 -210 20 -210 19 0 20 7 20 181 l0 181 76 -116
c42 -64 80 -116 85 -116 5 0 43 52 84 115 41 63 77 115 80 115 4 0 6 -17 5
-37 -1 -21 -2 -102 -1 -180 1 -120 3 -143 16 -143 13 0 15 30 15 210 0 205 -1
210 -20 210 -16 0 -41 -31 -98 -120 -42 -65 -79 -119 -82 -119 -3 0 -40 54
-82 120 -57 87 -83 119 -98 119 -19 0 -20 -6 -20 -210z"/>
<path d="M9671 388 c-10 -24 -51 -114 -90 -201 -39 -87 -71 -163 -71 -168 0
-5 6 -9 13 -9 8 0 24 23 37 50 l23 50 124 0 124 0 22 -50 c15 -33 28 -50 40
-50 10 0 17 4 15 9 -1 5 -43 100 -93 210 -99 222 -111 235 -144 159z m92 -121
c26 -59 47 -112 47 -117 0 -6 -43 -10 -106 -10 -97 0 -106 2 -100 17 28 74
102 231 107 225 3 -4 27 -55 52 -115z"/>
<path d="M10198 318 c-5 -197 1 -308 17 -308 11 0 15 21 17 99 l3 99 107 -100
c77 -71 113 -99 128 -96 17 2 -2 24 -94 110 l-115 107 107 100 c87 81 103 100
84 101 -16 0 -52 -28 -116 -90 -51 -49 -96 -90 -99 -90 -4 0 -7 41 -7 90 0 72
-3 90 -14 90 -12 0 -15 -23 -18 -112z"/>
<path d="M10770 220 l0 -210 145 0 c122 0 145 2 145 15 0 13 -21 15 -130 15
l-130 0 0 85 0 85 120 0 c100 0 120 3 120 15 0 13 -20 15 -120 15 l-120 0 0
80 0 80 130 0 c111 0 129 2 124 15 -5 12 -31 15 -145 15 l-139 0 0 -210z"/>
<path d="M11372 266 c3 -149 5 -167 24 -193 32 -43 78 -65 134 -65 65 0 109
26 138 82 20 40 22 59 22 193 0 136 -1 148 -17 145 -16 -3 -18 -19 -20 -143
-1 -77 -2 -148 -3 -159 0 -10 -15 -33 -34 -52 -30 -30 -41 -34 -84 -34 -35 0
-57 6 -77 22 -46 36 -55 73 -55 228 0 120 -2 140 -16 140 -13 0 -15 -20 -12
-164z"/>
<path d="M12010 219 c0 -195 1 -210 18 -207 14 3 18 16 20 69 l3 67 92 4 c67
3 101 9 124 23 86 51 82 190 -7 237 -27 14 -57 18 -142 18 l-108 0 0 -211z
m256 148 c44 -51 44 -108 -1 -153 -22 -22 -32 -24 -120 -24 l-95 0 0 106 0
106 96 -4 c90 -4 98 -6 120 -31z"/>
</g>
</svg>
